<svg xmlns="http://www.w3.org/2000/svg" width="128" height="128" viewBox="0 0 128 128">
  <defs>
    <linearGradient id="g" x1="0" y1="0" x2="1" y2="1">
      <stop offset="0" stop-color="#0b0f19"/>
      <stop offset="1" stop-color="#0b0f19"/>
    </linearGradient>
  </defs>
  <rect width="128" height="128" rx="28" fill="url(#g)"/>
  <path d="M40 92V36h28c8.8 0 15.8 2.1 21 6.4 5.2 4.2 7.8 10 7.8 17.3 0 5.6-1.3 10.2-3.9 13.8-2.6 3.6-6.2 6.1-10.8 7.6L96 92h-16l-11.8-18h-12V92H40zm16-31h12.2c4.2 0 7.4-1 9.7-3.1 2.3-2.1 3.4-5 3.4-8.8 0-3.9-1.1-6.8-3.4-8.7-2.3-1.9-5.6-2.9-9.9-2.9H56v23.5z"
        fill="#ffffff"/>
</svg>
